<mxfile host="app.diagrams.net" modified="2024-06-24T02:04:23.125Z" agent="Mozilla/5.0 (Windows NT 10.0; Win64; x64) AppleWebKit/537.36 (KHTML, like Gecko) Chrome/125.0.0.0 Safari/537.36" version="24.4.10" etag="0l7y5_vZl0_Gom7IXu-v" type="github">
  <diagram name="페이지-1" id="vru6mfcrYFePK2OXwOnz">
    <mxGraphModel>
      <root>
        <mxCell id="0" />
        <mxCell id="1" parent="0" />
      </root>
    </mxGraphModel>
  </diagram>
</mxfile>
